<mxfile host="app.diagrams.net" agent="Mozilla/5.0 (Windows NT 10.0; Win64; x64) AppleWebKit/537.36 (KHTML, like Gecko) Chrome/128.0.0.0 Safari/537.36" version="24.7.12" pages="5">
  <diagram name="yutu" id="HgsUI8XXkYwbFTP1tohv">
    <mxGraphModel dx="787" dy="448" grid="1" gridSize="10" guides="1" tooltips="1" connect="1" arrows="1" fold="1" page="1" pageScale="1" pageWidth="1100" pageHeight="850" math="0" shadow="0">
      <root>
        <mxCell id="0" />
        <mxCell id="1" parent="0" />
        <mxCell id="oqL2SlSINcPumu3K1nYp-59" value="" style="group" vertex="1" connectable="0" parent="1">
          <mxGeometry x="360" y="199.9962463550923" width="140" height="198.7737536449077" as="geometry" />
        </mxCell>
        <mxCell id="oqL2SlSINcPumu3K1nYp-60" value="" style="group" vertex="1" connectable="0" parent="oqL2SlSINcPumu3K1nYp-59">
          <mxGeometry y="68.77375364490771" width="140" height="130" as="geometry" />
        </mxCell>
        <mxCell id="oqL2SlSINcPumu3K1nYp-61" value="" style="group" vertex="1" connectable="0" parent="oqL2SlSINcPumu3K1nYp-60">
          <mxGeometry width="139.99999999999997" height="129.99999999999994" as="geometry" />
        </mxCell>
        <mxCell id="oqL2SlSINcPumu3K1nYp-62" value="" style="ellipse;whiteSpace=wrap;html=1;fillColor=#FF6666;strokeColor=none;sketch=1;curveFitting=1;jiggle=2;shadow=0;fillStyle=solid;" vertex="1" parent="oqL2SlSINcPumu3K1nYp-61">
          <mxGeometry width="139.99999999999997" height="129.99999999999994" as="geometry" />
        </mxCell>
        <mxCell id="oqL2SlSINcPumu3K1nYp-63" value="" style="triangle;whiteSpace=wrap;html=1;fillColor=#FFB570;strokeColor=none;sketch=1;curveFitting=1;jiggle=2;fillStyle=solid;rounded=1;shadow=1;rotation=5;" vertex="1" parent="oqL2SlSINcPumu3K1nYp-61">
          <mxGeometry x="52.02" y="28.96857142857143" width="61.12" height="65" as="geometry" />
        </mxCell>
        <mxCell id="oqL2SlSINcPumu3K1nYp-64" value="" style="group" vertex="1" connectable="0" parent="oqL2SlSINcPumu3K1nYp-59">
          <mxGeometry x="19.450183927289345" width="114.73981607271065" height="96.74375364490771" as="geometry" />
        </mxCell>
        <mxCell id="oqL2SlSINcPumu3K1nYp-65" value="" style="group" vertex="1" connectable="0" parent="oqL2SlSINcPumu3K1nYp-64">
          <mxGeometry x="16.10981607271065" y="19.383753644907713" width="55" height="60" as="geometry" />
        </mxCell>
        <mxCell id="oqL2SlSINcPumu3K1nYp-66" value="" style="group" vertex="1" connectable="0" parent="oqL2SlSINcPumu3K1nYp-65">
          <mxGeometry y="0.10259520280253653" width="56.715265723924134" height="57.54059926327666" as="geometry" />
        </mxCell>
        <mxCell id="oqL2SlSINcPumu3K1nYp-67" value="" style="group;rotation=-30;aspect=fixed;" vertex="1" connectable="0" parent="oqL2SlSINcPumu3K1nYp-66">
          <mxGeometry x="15.800297587748455" y="2.4003365383475392" width="23.732966783961707" height="52.73992618658157" as="geometry" />
        </mxCell>
        <mxCell id="oqL2SlSINcPumu3K1nYp-68" value="" style="curved=1;endArrow=none;html=1;rounded=0;endFill=0;fillColor=#FF6666;strokeColor=#FF6666;comic=0;orthogonalLoop=0;ignoreEdge=0;deletable=1;startFill=1;" edge="1" parent="oqL2SlSINcPumu3K1nYp-67">
          <mxGeometry width="50" height="50" relative="1" as="geometry">
            <mxPoint x="36.390549068741294" y="45.488186335926606" as="sourcePoint" />
            <mxPoint x="36.390549068741294" y="45.488186335926606" as="targetPoint" />
            <Array as="points">
              <mxPoint x="15.030878963175748" y="25.051464938626246" />
              <mxPoint x="1.5821977855974474" y="15.821977855974467" />
              <mxPoint x="-9.493186713584684" y="13.184981546645393" />
              <mxPoint x="18.98637342716937" y="45.488186335926606" />
            </Array>
          </mxGeometry>
        </mxCell>
        <mxCell id="oqL2SlSINcPumu3K1nYp-69" value="" style="curved=1;endArrow=none;html=1;rounded=0;endFill=0;strokeColor=#B0E3E6;comic=0;orthogonalLoop=0;ignoreEdge=0;deletable=1;startFill=1;" edge="1" parent="oqL2SlSINcPumu3K1nYp-66">
          <mxGeometry width="50" height="50" relative="1" as="geometry">
            <mxPoint x="56.71526572392413" y="50.291063755844505" as="sourcePoint" />
            <mxPoint x="56.71526572392413" y="50.291063755844505" as="targetPoint" />
            <Array as="points">
              <mxPoint x="38.62294965894057" y="54.07191064143635" />
              <mxPoint x="3.511177241721864" y="14.201161666103962" />
              <mxPoint y="8.014321307862737" />
              <mxPoint x="35.1117724172187" y="16.95086849198896" />
            </Array>
          </mxGeometry>
        </mxCell>
        <mxCell id="oqL2SlSINcPumu3K1nYp-70" value="" style="ellipse;whiteSpace=wrap;html=1;rotation=75;fillColor=#FF6666;strokeColor=none;sketch=1;curveFitting=1;jiggle=2;fillStyle=solid;" vertex="1" parent="oqL2SlSINcPumu3K1nYp-64">
          <mxGeometry x="-9.450183927289345" y="23.92375364490772" width="83.95" height="44.85" as="geometry" />
        </mxCell>
        <mxCell id="oqL2SlSINcPumu3K1nYp-71" value="" style="ellipse;whiteSpace=wrap;html=1;rotation=105;fillColor=#FF6666;strokeColor=none;sketch=1;curveFitting=1;jiggle=2;fillStyle=solid;" vertex="1" parent="oqL2SlSINcPumu3K1nYp-64">
          <mxGeometry x="36.59981607271067" y="23.92375364490772" width="83.95" height="44.85" as="geometry" />
        </mxCell>
        <mxCell id="oqL2SlSINcPumu3K1nYp-72" value="&lt;p style=&quot;line-height: 100%;&quot;&gt;&lt;span style=&quot;font-family: &amp;quot;Comic Sans MS&amp;quot;; font-size: 118px;&quot;&gt;yutu&lt;/span&gt;&lt;/p&gt;" style="text;html=1;align=center;verticalAlign=middle;resizable=0;points=[];autosize=1;strokeColor=none;fillColor=none;spacing=0;" vertex="1" parent="1">
          <mxGeometry x="520" y="269.38" width="260" height="90" as="geometry" />
        </mxCell>
      </root>
    </mxGraphModel>
  </diagram>
  <diagram id="SltbVO09sfa3l8qQqKg2" name="yutu-ico">
    <mxGraphModel dx="661" dy="376" grid="1" gridSize="10" guides="1" tooltips="1" connect="1" arrows="1" fold="1" page="1" pageScale="1" pageWidth="827" pageHeight="1169" math="0" shadow="0">
      <root>
        <mxCell id="0" />
        <mxCell id="1" parent="0" />
        <mxCell id="WKj6DpxLUBhHQ0AxX3lQ-251" value="" style="ellipse;whiteSpace=wrap;html=1;rotation=75;fillColor=#FF6666;strokeColor=none;sketch=1;curveFitting=1;jiggle=2;fillStyle=solid;container=0;" vertex="1" parent="1">
          <mxGeometry x="414" y="296" width="102.03" height="52.19" as="geometry" />
        </mxCell>
        <mxCell id="WKj6DpxLUBhHQ0AxX3lQ-252" value="" style="ellipse;whiteSpace=wrap;html=1;rotation=105;fillColor=#FF6666;strokeColor=none;sketch=1;curveFitting=1;jiggle=2;fillStyle=solid;container=0;" vertex="1" parent="1">
          <mxGeometry x="454.78" y="291" width="97.48" height="53.72" as="geometry" />
        </mxCell>
        <mxCell id="WKj6DpxLUBhHQ0AxX3lQ-253" value="" style="ellipse;whiteSpace=wrap;html=1;fillColor=#FF6666;strokeColor=none;sketch=1;curveFitting=1;jiggle=2;shadow=0;fillStyle=solid;container=0;" vertex="1" parent="1">
          <mxGeometry x="352" y="320" width="256" height="199.81" as="geometry" />
        </mxCell>
        <mxCell id="WKj6DpxLUBhHQ0AxX3lQ-254" value="" style="triangle;whiteSpace=wrap;html=1;fillColor=#FFB570;strokeColor=none;sketch=1;curveFitting=1;jiggle=2;fillStyle=solid;rounded=1;shadow=1;rotation=5;container=0;" vertex="1" parent="1">
          <mxGeometry x="440" y="357.17" width="100" height="125.46" as="geometry" />
        </mxCell>
      </root>
    </mxGraphModel>
  </diagram>
  <diagram id="ME_lvCD3kbWKB2l7JuuW" name="abandon">
    <mxGraphModel dx="1562" dy="891" grid="1" gridSize="10" guides="1" tooltips="1" connect="1" arrows="1" fold="1" page="1" pageScale="1" pageWidth="827" pageHeight="1169" math="0" shadow="0">
      <root>
        <mxCell id="0" />
        <mxCell id="1" parent="0" />
        <mxCell id="exTvPNQExlWehOXp9kvl-1" value="&lt;div&gt;&lt;font style=&quot;font-size: 36px;&quot;&gt;&lt;br&gt;&lt;/font&gt;&lt;/div&gt;&lt;font style=&quot;font-size: 36px;&quot;&gt;ABAN&lt;/font&gt;&lt;div&gt;&lt;font style=&quot;font-size: 36px;&quot;&gt;DON&lt;/font&gt;&lt;/div&gt;&lt;div&gt;&lt;font style=&quot;font-size: 36px;&quot;&gt;&lt;br&gt;&lt;/font&gt;&lt;/div&gt;" style="text;html=1;align=center;verticalAlign=middle;resizable=0;points=[];autosize=1;strokeColor=none;fillColor=#ffe6cc;fontFamily=Comic Sans MS;" parent="1" vertex="1">
          <mxGeometry x="240" y="320" width="130" height="190" as="geometry" />
        </mxCell>
      </root>
    </mxGraphModel>
  </diagram>
  <diagram id="u64daZwIxqt9b9xgIhQl" name="chimoji">
    <mxGraphModel dx="1562" dy="891" grid="1" gridSize="10" guides="1" tooltips="1" connect="1" arrows="1" fold="1" page="1" pageScale="1" pageWidth="827" pageHeight="1169" math="0" shadow="0">
      <root>
        <mxCell id="0" />
        <mxCell id="1" parent="0" />
        <mxCell id="f2lCZcE7F5WgQHFR5r4P-1" value="&lt;span style=&quot;font-size: 69px; text-wrap: nowrap;&quot;&gt;😿🐰🐧❤️‍🩹&lt;/span&gt;" style="rounded=0;whiteSpace=wrap;html=1;strokeColor=#FF919F;strokeWidth=1;fillColor=#FF919F;spacing=0;labelBorderColor=none;verticalAlign=middle;" parent="1" vertex="1">
          <mxGeometry x="160" y="235" width="440" height="85" as="geometry" />
        </mxCell>
        <mxCell id="f2lCZcE7F5WgQHFR5r4P-8" value="&lt;span style=&quot;font-size: 69px; text-wrap: nowrap;&quot;&gt;😿🐰🐧❤️‍🩹&lt;/span&gt;" style="rounded=0;whiteSpace=wrap;html=1;strokeColor=#FF919F;strokeWidth=1;fillColor=#FF919F;spacing=0;labelBorderColor=none;verticalAlign=middle;" parent="1" vertex="1">
          <mxGeometry x="160" y="317" width="440" height="85" as="geometry" />
        </mxCell>
        <mxCell id="f2lCZcE7F5WgQHFR5r4P-9" value="&lt;span style=&quot;font-size: 69px; text-wrap: nowrap;&quot;&gt;😿🐰🐧❤️‍🩹&lt;/span&gt;" style="rounded=0;whiteSpace=wrap;html=1;strokeColor=#FF919F;strokeWidth=1;fillColor=#FF919F;spacing=0;labelBorderColor=none;verticalAlign=middle;" parent="1" vertex="1">
          <mxGeometry x="160" y="400" width="440" height="85" as="geometry" />
        </mxCell>
      </root>
    </mxGraphModel>
  </diagram>
  <diagram id="PxDE1w6VXgvHYtiDOyJ6" name="eat-pray-ai">
    <mxGraphModel dx="1562" dy="891" grid="1" gridSize="10" guides="1" tooltips="1" connect="1" arrows="1" fold="1" page="1" pageScale="1" pageWidth="827" pageHeight="1169" math="0" shadow="0">
      <root>
        <mxCell id="0" />
        <mxCell id="1" parent="0" />
        <mxCell id="BdCJykdkTkFccGUDSuFe-2" value="&lt;font style=&quot;font-size: 192px;&quot;&gt;🍚&lt;/font&gt;" style="rounded=0;whiteSpace=wrap;html=1;spacing=0;strokeColor=none;fillColor=none;" vertex="1" parent="1">
          <mxGeometry x="160" y="200" width="240" height="240" as="geometry" />
        </mxCell>
        <mxCell id="BdCJykdkTkFccGUDSuFe-4" value="&lt;font style=&quot;font-size: 144px;&quot;&gt;💘&lt;/font&gt;" style="rounded=0;whiteSpace=wrap;html=1;strokeColor=none;fillColor=none;" vertex="1" parent="1">
          <mxGeometry x="180" y="170" width="200" height="200" as="geometry" />
        </mxCell>
        <mxCell id="BdCJykdkTkFccGUDSuFe-3" value="&lt;font style=&quot;font-size: 96px;&quot;&gt;🙏&lt;/font&gt;" style="rounded=0;whiteSpace=wrap;html=1;strokeColor=none;fillColor=none;" vertex="1" parent="1">
          <mxGeometry x="200" y="280" width="160" height="160" as="geometry" />
        </mxCell>
      </root>
    </mxGraphModel>
  </diagram>
</mxfile>
